<svg width="26" height="26" viewBox="0 0 26 26" fill="none" xmlns="http://www.w3.org/2000/svg">
<g clip-path="url(#clip0_187_75)">
<path fill-rule="evenodd" clip-rule="evenodd" d="M13.0013 0.541016C9.91508 0.542617 6.93011 1.63568 4.58007 3.62475C2.23004 5.61382 0.668195 8.36919 0.173806 11.3982C-0.320582 14.4272 0.28472 17.5322 1.88149 20.1582C3.47827 22.7842 5.96238 24.7598 8.88964 25.7317C9.53544 25.8516 9.7787 25.4513 9.7787 25.111C9.7787 24.7707 9.76578 23.7839 9.76147 22.7052C6.14498 23.4864 5.38078 21.179 5.38078 21.179C4.79095 19.6807 3.93849 19.2869 3.93849 19.2869C2.75882 18.4864 4.02676 18.5014 4.02676 18.5014C5.33343 18.5934 6.02013 19.8349 6.02013 19.8349C7.17827 21.8105 9.06185 21.239 9.80237 20.9051C9.91862 20.0682 10.2566 19.4988 10.629 19.1756C7.74012 18.8503 4.70484 17.7415 4.70484 12.7886C4.68694 11.504 5.16632 10.2618 6.04381 9.31892C5.91035 8.99358 5.46473 7.67935 6.17081 5.89423C6.17081 5.89423 7.26223 5.54748 9.74641 7.21916C11.8772 6.63977 14.1253 6.63977 16.2561 7.21916C18.7381 5.54748 19.8274 5.89423 19.8274 5.89423C20.5356 7.67507 20.09 8.98929 19.9565 9.31892C20.8368 10.262 21.3172 11.5064 21.2977 12.7928C21.2977 17.7565 18.2559 18.8503 15.3627 19.1692C15.8277 19.5716 16.2432 20.3571 16.2432 21.5643C16.2432 23.2938 16.2281 24.6851 16.2281 25.111C16.2281 25.4556 16.4627 25.858 17.1215 25.7317C20.0491 24.7596 22.5334 22.7837 24.1302 20.1573C25.7269 17.5309 26.3319 14.4253 25.837 11.3961C25.342 8.3668 23.7794 5.6114 21.4286 3.62267C19.0778 1.63394 16.0921 0.541602 13.0056 0.541016H13.0013Z" fill="black"/>
<path d="M4.92319 19.1007C4.89521 19.1649 4.79188 19.1842 4.70792 19.1392C4.62397 19.0943 4.56155 19.0108 4.59168 18.9444C4.62182 18.8781 4.723 18.861 4.80695 18.9059C4.8909 18.9509 4.95548 19.0365 4.92319 19.1007Z" fill="black"/>
<path d="M5.45017 19.6851C5.40559 19.7074 5.35459 19.7136 5.30589 19.7027C5.2572 19.6918 5.21385 19.6644 5.18324 19.6251C5.09929 19.5352 5.08206 19.4111 5.14664 19.3555C5.21122 19.2998 5.32747 19.3255 5.41143 19.4154C5.49538 19.5053 5.51475 19.6294 5.45017 19.6851Z" fill="black"/>
<path d="M5.96197 20.4288C5.88232 20.4844 5.74669 20.4288 5.67135 20.3175C5.65051 20.2975 5.63395 20.2735 5.62263 20.2471C5.61131 20.2206 5.60547 20.1921 5.60547 20.1633C5.60547 20.1346 5.61131 20.1061 5.62263 20.0796C5.63395 20.0531 5.65051 20.0292 5.67135 20.0092C5.751 19.9557 5.88662 20.0092 5.96197 20.1184C6.03731 20.2276 6.03946 20.3731 5.96197 20.4288Z" fill="black"/>
<path d="M6.65858 21.1477C6.58754 21.2269 6.44331 21.2055 6.32491 21.0985C6.20652 20.9914 6.17853 20.8459 6.24956 20.7688C6.3206 20.6918 6.46483 20.7132 6.58753 20.8181C6.71024 20.9229 6.73392 21.0706 6.65858 21.1477Z" fill="black"/>
<path d="M7.63303 21.5669C7.60074 21.6675 7.45436 21.7125 7.30797 21.6697C7.16159 21.6269 7.06472 21.507 7.09271 21.4043C7.12069 21.3015 7.26923 21.2544 7.41776 21.3015C7.5663 21.3486 7.66101 21.462 7.63303 21.5669Z" fill="black"/>
<path d="M8.69621 21.6396C8.69621 21.7445 8.57567 21.8343 8.42067 21.8365C8.26568 21.8386 8.13867 21.753 8.13867 21.6481C8.13867 21.5433 8.25922 21.4534 8.41421 21.4512C8.5692 21.4491 8.69621 21.5325 8.69621 21.6396Z" fill="black"/>
<path d="M9.68628 21.4759C9.70565 21.5808 9.59802 21.6899 9.44303 21.7156C9.28803 21.7413 9.15242 21.6792 9.13304 21.5765C9.11367 21.4737 9.22561 21.3624 9.37629 21.3346C9.52698 21.3068 9.66691 21.371 9.68628 21.4759Z" fill="black"/>
</g>
<defs>
<clipPath id="clip0_187_75">
<rect width="26" height="26" fill="white"/>
</clipPath>
</defs>
</svg>
