<svg width="26" height="26" viewBox="0 0 26 26" fill="none" xmlns="http://www.w3.org/2000/svg">
<g clip-path="url(#clip0_187_76)">
<path d="M13 4.33395L9.53336 7.80062L11.2667 9.53396L14.7334 6.06729C16.1634 4.63728 18.5034 4.63728 19.9334 6.06729C21.3634 7.49729 21.3634 9.8373 19.9334 11.2673L16.4667 14.734L18.2001 16.4673L21.6667 13.0006C24.0587 10.6086 24.0587 6.72595 21.6667 4.33395C19.2747 1.94194 15.392 1.94194 13 4.33395ZM14.7334 16.4673L11.2667 19.934C9.8367 21.364 7.49669 21.364 6.06668 19.934C4.63668 18.504 4.63668 16.164 6.06668 14.734L9.53336 11.2673L7.80002 9.53396L4.33335 13.0006C1.94134 15.3926 1.94134 19.2753 4.33335 21.6673C6.72535 24.0593 10.608 24.0593 13 21.6673L16.4667 18.2007L14.7334 16.4673ZM8.66669 15.6006L15.6 8.66729L17.3334 10.4006L10.4 17.334L8.66669 15.6006Z" fill="black"/>
</g>
<defs>
<clipPath id="clip0_187_76">
<rect width="26" height="26" fill="white"/>
</clipPath>
</defs>
</svg>
